<svg width="420" height="420" viewBox="0 0 420 420" fill="none" xmlns="http://www.w3.org/2000/svg">
  <path d="M329 86c-58-55-154-60-214-2-67 65-69 177-5 243 61 63 165 70 234 17 34-26 59-69 61-113" stroke="#C99A3E" stroke-width="13" stroke-linecap="round" opacity=".72"/>
  <path d="M86 279c-33-75-4-168 67-208 48-27 109-28 158-2" stroke="#8F6B2F" stroke-width="5" stroke-linecap="round" opacity=".42"/>
  <path d="M210 116c19 0 33 14 33 32 0 13-8 24-19 29 43 9 72 46 74 92H122c2-46 31-83 74-92-11-5-19-16-19-29 0-18 14-32 33-32Z" fill="#050607" stroke="#C99A3E" stroke-width="3"/>
  <path d="M154 303h112M131 328h158" stroke="#8F6B2F" stroke-width="3" stroke-linecap="round"/>
</svg>
